<svg width="24" height="24" viewBox="0 0 24 24" fill="none" xmlns="http://www.w3.org/2000/svg">
<path d="M5 19H6L16.975 8.025L15.975 7.025L5 18V19ZM4.3 19.7V17.7L17.475 4.5C17.5482 4.43617 17.629 4.38692 17.7175 4.35225C17.8058 4.31742 17.8973 4.3 17.992 4.3C18.0865 4.3 18.1782 4.3125 18.267 4.3375C18.3557 4.3625 18.4417 4.41667 18.525 4.5L19.5 5.475C19.5833 5.55834 19.6375 5.64509 19.6625 5.73525C19.6875 5.82542 19.7 5.91559 19.7 6.00575C19.7 6.10192 19.6841 6.19417 19.6523 6.2825C19.6202 6.371 19.5695 6.45184 19.5 6.525L6.3 19.7H4.3ZM16.4663 7.53375L15.975 7.025L16.975 8.025L16.4663 7.53375Z" fill="#5F6368"/>
</svg>
