<svg width="22" height="22" viewBox="0 0 22 22" fill="none" xmlns="http://www.w3.org/2000/svg">
<circle cx="11" cy="11" r="10.5" stroke="#5F6368" stroke-dasharray="4 4"/>
<path d="M4.43439 16.4083V15.3792C4.43439 15.0361 4.52345 14.7491 4.70157 14.5182C4.8797 14.2873 5.12017 14.0987 5.42298 13.9524C6.07017 13.6501 6.70713 13.4033 7.33387 13.212C7.9606 13.0207 8.76216 12.925 9.73855 12.925C10.7149 12.925 11.5165 13.0207 12.1432 13.212C12.77 13.4033 13.4069 13.6501 14.0541 13.9524C14.3569 14.0987 14.5974 14.2873 14.7755 14.5182C14.9537 14.7491 15.0427 15.0361 15.0427 15.3792V16.4083H4.43439ZM16.6261 16.4083V15.3792C16.6261 14.957 16.5538 14.5613 16.4093 14.1921C16.265 13.8229 16.0601 13.5061 15.7948 13.2417C16.0983 13.3208 16.3952 13.4231 16.6854 13.5484C16.9757 13.6738 17.2726 13.809 17.5761 13.9542C17.8795 14.0993 18.1203 14.2983 18.2984 14.5511C18.4766 14.8039 18.5656 15.0799 18.5656 15.3792V16.4083H16.6261ZM9.73855 10.8667C9.15074 10.8667 8.64757 10.6574 8.22904 10.2389C7.81038 9.82022 7.60105 9.31699 7.60105 8.72917C7.60105 8.14136 7.81038 7.63813 8.22904 7.21947C8.64757 6.80094 9.15074 6.59167 9.73855 6.59167C10.3264 6.59167 10.8295 6.80094 11.2481 7.21947C11.6667 7.63813 11.8761 8.14136 11.8761 8.72917C11.8761 9.31699 11.6667 9.82022 11.2481 10.2389C10.8295 10.6574 10.3264 10.8667 9.73855 10.8667ZM14.8448 8.72917C14.8448 9.31699 14.6355 9.82022 14.217 10.2389C13.7984 10.6574 13.2951 10.8667 12.7073 10.8667C12.949 10.5664 13.1348 10.2331 13.2646 9.867C13.3945 9.50098 13.4594 9.12092 13.4594 8.7268C13.4594 8.33255 13.3901 7.9573 13.2516 7.60105C13.113 7.2448 12.9316 6.90834 12.7073 6.59167C13.2951 6.59167 13.7984 6.80094 14.217 7.21947C14.6355 7.63813 14.8448 8.14136 14.8448 8.72917ZM4.98855 15.8542H14.4886V15.3792C14.4886 15.1813 14.4391 15.0097 14.3401 14.8646C14.2412 14.7195 14.0531 14.5743 13.7761 14.4292C13.2219 14.1257 12.6281 13.8915 11.9948 13.7266C11.3615 13.5616 10.6094 13.4792 9.73855 13.4792C8.86772 13.4792 8.11564 13.5616 7.4823 13.7266C6.84897 13.8915 6.25522 14.1257 5.70105 14.4292C5.42397 14.5743 5.23595 14.7195 5.13699 14.8646C5.03803 15.0097 4.98855 15.1813 4.98855 15.3792V15.8542ZM9.73855 10.3125C10.174 10.3125 10.5467 10.1575 10.8568 9.8474C11.1669 9.53733 11.3219 9.16459 11.3219 8.72917C11.3219 8.29376 11.1669 7.92102 10.8568 7.61095C10.5467 7.30088 10.174 7.14584 9.73855 7.14584C9.30314 7.14584 8.93039 7.30088 8.62032 7.61095C8.31026 7.92102 8.15522 8.29376 8.15522 8.72917C8.15522 9.16459 8.31026 9.53733 8.62032 9.8474C8.93039 10.1575 9.30314 10.3125 9.73855 10.3125Z" fill="#5F6368"/>
</svg>
