<svg width="24" height="24" viewBox="0 0 24 24" fill="none" xmlns="http://www.w3.org/2000/svg">
<g clip-path="url(#clip0_146_9)">
<path d="M8.15175 16.4C8.35059 16.4 8.51667 16.3327 8.65 16.1982C8.78334 16.0637 8.85 15.8971 8.85 15.6982C8.85 15.4994 8.78275 15.3333 8.64825 15.2C8.51375 15.0667 8.34709 15 8.14825 15C7.94942 15 7.78334 15.0672 7.65 15.2017C7.51667 15.3362 7.45 15.5029 7.45 15.7017C7.45 15.9006 7.51725 16.0667 7.65175 16.2C7.78625 16.3333 7.95292 16.4 8.15175 16.4ZM8.15175 12.7C8.35059 12.7 8.51667 12.6327 8.65 12.4982C8.78334 12.3637 8.85 12.1971 8.85 11.9982C8.85 11.7994 8.78275 11.6333 8.64825 11.5C8.51375 11.3667 8.34709 11.3 8.14825 11.3C7.94942 11.3 7.78334 11.3672 7.65 11.5017C7.51667 11.6362 7.45 11.8029 7.45 12.0017C7.45 12.2006 7.51725 12.3667 7.65175 12.5C7.78625 12.6333 7.95292 12.7 8.15175 12.7ZM8.15175 8.99999C8.35059 8.99999 8.51667 8.93274 8.65 8.79824C8.78334 8.66374 8.85 8.49707 8.85 8.29824C8.85 8.0994 8.78275 7.93332 8.64825 7.79999C8.51375 7.66665 8.34709 7.59999 8.14825 7.59999C7.94942 7.59999 7.78334 7.66724 7.65 7.80174C7.51667 7.93624 7.45 8.1029 7.45 8.30174C7.45 8.50057 7.51725 8.66665 7.65175 8.79999C7.78625 8.93332 7.95292 8.99999 8.15175 8.99999ZM11.25 16.05H16.45V15.35H11.25V16.05ZM11.25 12.35H16.45V11.65H11.25V12.35ZM11.25 8.64999H16.45V7.94999H11.25V8.64999ZM5.8 19.7C5.36667 19.7 5.00834 19.5583 4.725 19.275C4.44167 18.9917 4.3 18.6333 4.3 18.2V5.79999C4.3 5.36665 4.44167 5.00832 4.725 4.72499C5.00834 4.44165 5.36667 4.29999 5.8 4.29999H18.2C18.6333 4.29999 18.9917 4.44165 19.275 4.72499C19.5583 5.00832 19.7 5.36665 19.7 5.79999V18.2C19.7 18.6333 19.5583 18.9917 19.275 19.275C18.9917 19.5583 18.6333 19.7 18.2 19.7H5.8ZM5.8 19H18.2C18.4 19 18.5833 18.9167 18.75 18.75C18.9167 18.5833 19 18.4 19 18.2V5.79999C19 5.59999 18.9167 5.41665 18.75 5.24999C18.5833 5.08332 18.4 4.99999 18.2 4.99999H5.8C5.6 4.99999 5.41667 5.08332 5.25 5.24999C5.08334 5.41665 5 5.59999 5 5.79999V18.2C5 18.4 5.08334 18.5833 5.25 18.75C5.41667 18.9167 5.6 19 5.8 19Z" fill="#5F6368"/>
</g>
<defs>
<clipPath id="clip0_146_9">
<rect width="24" height="24" fill="white"/>
</clipPath>
</defs>
</svg>
